<svg width="687" height="147" viewBox="0 0 687 147" fill="none" xmlns="http://www.w3.org/2000/svg">
<path d="M263.96 18.87C263.96 6.38 272.91 0 282.72 0C285.88 0 289.79 1.02 290.38 1.02C291.13 1.02 291.62 0.48 291.88 0H294.78L297.24 10.51L295.26 11.26C292.63 5.9 289.85 2.04 284.01 2.04C277.15 2.04 272.11 9.49 272.11 18.34C272.11 27.19 276.34 35.12 283.63 35.12C288.02 35.12 291.67 31.85 291.67 27.94V25.37C291.67 21.62 290.54 20.12 286.79 20.01L284.38 19.96V18.46H300.51V20.18C298.26 20.18 297.73 21.36 297.73 24.74V34.28L290.06 36.16C288.35 36.7 285.99 37.55 282.61 37.55C273.02 37.55 263.96 31.55 263.96 18.9V18.87Z" fill="black"/>
<path d="M311.78 30.44L321.05 2.3L320.3 0.53H329.47L339.65 30.44C340.62 33.12 341.42 35.48 345.01 35.48V36.98H329.25V35.48C333.17 35.48 332.63 33.76 331.45 30.44L329.74 25.35H316.28L314.62 30.44C313.55 33.66 313.18 35.48 317.3 35.48V36.98H306.96V35.48C309.48 35.48 310.39 34.52 311.78 30.44ZM328.99 23.1L322.88 4.98L316.98 23.1H328.99Z" fill="black"/>
<path d="M372.94 36.98H350.27V35.48C353 35.48 353.86 34.78 353.86 31.35V6.16C353.86 3.1 353.21 2.03 350.27 2.03V0.54H370.26C373.58 0.54 376.53 0.49 378.62 0.38L381.14 10.24L379.21 10.72C376.85 5.84 374.81 2.68 368.59 2.68H360.93V16.19H366.34C369.08 16.19 371.11 15.55 371.11 12.12H373.15V22.41H371.11C371.11 19.3 369.67 18.28 366.34 18.28H360.93V34.84H369.88C376.31 34.84 378.99 29.53 380.81 24.12L382.58 24.82L380.97 37.15C378.94 37.04 376.26 36.99 372.93 36.99L372.94 36.98Z" fill="black"/>
<path d="M408.04 37.52C398.55 37.52 389.39 31.57 389.39 18.87C389.39 6.17 398.34 0 408.15 0C411.31 0 415.22 1.02 415.81 1.02C416.88 1.13 417.05 0.48 417.31 0H420.21L422.67 10.51L420.53 11.31C417.9 5.95 415.28 2.04 409.44 2.04C402.58 2.04 397.54 9.22 397.54 18.12C397.54 27.02 403.17 34.04 411.53 34.04C415.71 34.04 419.14 32.11 421.71 28.89L423.1 29.69C419.99 34.78 415.17 37.52 408.04 37.52Z" fill="black"/>
<path d="M15.15 122.57V40.18C15.15 27.8 14.78 21.89 0 21.89V18.56H40.09C82.58 18.56 110.47 42.94 110.47 81.37C110.47 119.8 82.57 144.18 40.09 144.18H0V140.85C13.3 140.85 15.15 137.34 15.15 122.56V122.57ZM97.54 81.37C97.54 46.83 72.05 21.89 35.47 21.89H25.86V140.86H35.47C72.05 140.86 97.54 115.92 97.54 81.37Z" fill="black"/>
<path d="M125.45 99.85C125.45 74.36 143.18 53.67 167.94 53.67C185.67 53.67 201.93 65.31 201.93 83.04C201.93 89.69 200.45 92.83 194.72 92.83H138.01C137.46 131.26 153.71 139.57 170.71 139.57C186.6 139.57 201 126.45 201 107.24H204.88C204.88 127.38 189.92 146.04 167.93 146.04C145.94 146.04 125.44 125.53 125.44 99.86L125.45 99.85ZM190.11 81.19C190.11 64.93 178.1 56.8 167.94 56.8C154.08 56.8 142.07 70.47 138.56 89.13H184.01C188.45 89.13 190.11 86.36 190.11 81.19Z" fill="black"/>
<path d="M228.91 123.5V40.92C228.91 24.85 223.55 24.66 213.76 27.25V23.92L234.45 15.61L239.26 18.57V123.5C239.26 136.06 239.44 140.86 253.85 140.86V144.19H213.76V140.86C227.8 140.86 228.91 137.53 228.91 123.5Z" fill="black"/>
<path d="M263.83 99.85C263.83 73.8 281.01 53.67 308.17 53.67C335.33 53.67 352.51 73.81 352.51 99.85C352.51 125.89 335.33 146.03 308.17 146.03C281.01 146.03 263.83 125.89 263.83 99.85ZM308.17 142.89C329.97 142.89 340.31 120.91 340.31 99.85C340.31 78.79 330.52 56.81 308.17 56.81C285.82 56.81 276.03 78.79 276.03 99.85C276.03 120.91 285.82 142.89 308.17 142.89Z" fill="black"/>
<path d="M390.76 58.47V70.11C397.59 59.03 407.39 53.67 417.36 53.67C428.26 53.67 437.13 59.77 437.13 65.68C437.13 69.56 435.1 71.59 431.22 71.59C421.8 71.59 421.98 60.32 411.08 60.32C403.87 60.32 396.49 66.6 390.76 76.39V123.5C390.76 136.06 390.94 140.86 405.35 140.86V144.19H365.26V140.86C379.3 140.86 380.41 137.53 380.41 123.5V80.83C380.41 64.76 375.05 64.57 365.26 67.16V63.83L385.95 55.52L390.76 58.48V58.47Z" fill="black"/>
<path d="M460.23 123.5V80.83C460.23 64.76 454.87 64.57 445.08 67.16V63.83L465.77 55.52L470.58 58.48V69.75L471.87 70.86C478.52 58.11 487.57 53.68 498.84 53.68C510.11 53.68 522.49 61.62 526 71.78C531.91 59.77 541.33 53.68 554.45 53.68C568.67 53.68 583.45 65.14 583.45 83.24V123.51C583.45 136.07 583.82 140.87 598.6 140.87V144.2H558.51V140.87C572.55 140.87 573.1 137.54 573.1 123.51V87.12C573.1 71.05 564.42 58.85 551.11 58.85C540.58 58.85 532.82 63.65 526.91 76.21V123.5C526.91 136.06 527.28 140.86 542.06 140.86V144.19H501.97V140.86C516.01 140.86 516.56 137.53 516.56 123.5V87.11C516.56 70.85 508.8 58.84 495.5 58.84C484.23 58.84 475.92 65.12 470.56 78.98V123.5C470.56 136.06 470.74 140.86 485.15 140.86V144.19H445.06V140.86C459.1 140.86 460.21 137.53 460.21 123.5H460.23Z" fill="black"/>
<path d="M606.93 99.85C606.93 74.36 624.66 53.67 649.42 53.67C667.15 53.67 683.41 65.31 683.41 83.04C683.41 89.69 681.93 92.83 676.2 92.83H619.49C618.94 131.26 635.19 139.57 652.19 139.57C668.08 139.57 682.48 126.45 682.48 107.24H686.36C686.36 127.38 671.4 146.04 649.41 146.04C627.42 146.04 606.92 125.53 606.92 99.86L606.93 99.85ZM671.59 81.19C671.59 64.93 659.58 56.8 649.42 56.8C635.56 56.8 623.55 70.47 620.04 89.13H665.49C669.93 89.13 671.59 86.36 671.59 81.19Z" fill="black"/>
</svg>
